<svg data-v-423bf9ae="" xmlns="http://www.w3.org/2000/svg" viewBox="0 0 466.6472249328466 163" class="iconAbove"><!----><!----><!----><g data-v-423bf9ae="" id="7b527933-f82c-4370-a31d-929bea480a8b" fill="white" transform="matrix(5.830903811703725,0,0,5.830903811703725,-6.47230797843514,90.34693589955447)"><path d="M1.11 12.29L1.11 2.69L3.08 2.69L5.38 9.24L5.38 9.24Q5.50 9.60 5.63 10.07L5.63 10.07L5.63 10.07Q5.77 10.54 5.81 10.68L5.81 10.68L5.87 10.68L5.87 10.68Q5.91 10.53 6.04 10.04L6.04 10.04L6.04 10.04Q6.17 9.55 6.29 9.24L6.29 9.24L8.60 2.69L10.56 2.69L10.56 12.29L9.23 12.29L9.23 5.95L9.25 4.16L9.16 4.16L9.16 4.16Q9.14 4.26 9.07 4.56L9.07 4.56L9.07 4.56Q9.00 4.86 8.92 5.08L8.92 5.08L6.31 12.29L5.21 12.29L2.65 5.08L2.65 5.08Q2.58 4.89 2.50 4.57L2.50 4.57L2.50 4.57Q2.42 4.26 2.41 4.16L2.41 4.16L2.32 4.16L2.35 5.95L2.35 12.29L1.11 12.29ZM14.60 12.46L14.60 12.46Q13.65 12.46 12.91 12.01L12.91 12.01L12.91 12.01Q12.17 11.56 12.17 10.39L12.17 10.39L12.17 10.39Q12.17 8.97 13.43 8.45L13.43 8.45L13.43 8.45Q14.69 7.92 17.07 7.92L17.07 7.92L17.07 7.11L17.07 7.11Q17.07 6.47 16.70 6.13L16.70 6.13L16.70 6.13Q16.34 5.78 15.39 5.78L15.39 5.78L15.39 5.78Q14.49 5.78 14.11 6.12L14.11 6.12L14.11 6.12Q13.72 6.45 13.72 6.94L13.72 6.94L13.72 7.11L12.53 7.11L12.53 7.11Q12.52 7.03 12.52 6.80L12.52 6.80L12.52 6.80Q12.52 5.82 13.33 5.29L13.33 5.29L13.33 5.29Q14.14 4.76 15.50 4.76L15.50 4.76L15.50 4.76Q16.87 4.76 17.58 5.33L17.58 5.33L17.58 5.33Q18.30 5.91 18.30 6.96L18.30 6.96L18.30 10.95L18.30 10.95Q18.30 11.20 18.44 11.32L18.44 11.32L18.44 11.32Q18.58 11.44 18.79 11.44L18.79 11.44L19.35 11.44L19.35 12.24L19.35 12.24Q18.98 12.40 18.40 12.40L18.40 12.40L18.40 12.40Q17.92 12.40 17.60 12.12L17.60 12.12L17.60 12.12Q17.28 11.83 17.16 11.35L17.16 11.35L17.07 11.35L17.07 11.35Q16.69 11.87 16.04 12.17L16.04 12.17L16.04 12.17Q15.39 12.46 14.60 12.46L14.60 12.46ZM14.92 11.44L14.92 11.44Q15.47 11.44 15.96 11.21L15.96 11.21L15.96 11.21Q16.45 10.99 16.76 10.55L16.76 10.55L16.76 10.55Q17.07 10.11 17.07 9.48L17.07 9.48L17.07 8.95L17.07 8.95Q15.26 8.95 14.36 9.23L14.36 9.23L14.36 9.23Q13.45 9.52 13.45 10.32L13.45 10.32L13.45 10.32Q13.45 10.92 13.83 11.18L13.83 11.18L13.83 11.18Q14.20 11.44 14.92 11.44L14.92 11.44ZM20.38 12.29L20.38 4.93L21.32 4.93L21.46 6.03L21.55 6.03L21.55 6.03Q21.76 5.49 22.18 5.12L22.18 5.12L22.18 5.12Q22.60 4.76 23.28 4.76L23.28 4.76L23.28 4.76Q23.52 4.76 23.71 4.81L23.71 4.81L23.71 4.81Q23.90 4.86 23.94 4.87L23.94 4.87L23.94 6.06L23.42 6.06L23.42 6.06Q22.64 6.06 22.13 6.52L22.13 6.52L22.13 6.52Q21.62 6.97 21.62 7.94L21.62 7.94L21.62 12.29L20.38 12.29ZM25.05 12.29L25.05 2.17L26.28 2.17L26.28 8.54L29.40 4.93L30.93 4.93L28.39 7.83L31.07 12.29L29.64 12.29L27.62 8.71L26.28 9.98L26.28 12.29L25.05 12.29ZM35.17 12.46L35.17 12.46Q33.39 12.46 32.52 11.52L32.52 11.52L32.52 11.52Q31.65 10.58 31.65 8.61L31.65 8.61L31.65 8.61Q31.65 6.64 32.52 5.70L32.52 5.70L32.52 5.70Q33.39 4.76 35.17 4.76L35.17 4.76L35.17 4.76Q36.76 4.76 37.55 5.61L37.55 5.61L37.55 5.61Q38.35 6.45 38.35 8.33L38.35 8.33L38.35 8.95L32.93 8.95L32.93 8.95Q33.00 10.22 33.54 10.83L33.54 10.83L33.54 10.83Q34.08 11.44 35.17 11.44L35.17 11.44L35.17 11.44Q36.05 11.44 36.60 11.03L36.60 11.03L36.60 11.03Q37.14 10.63 37.14 9.79L37.14 9.79L38.35 9.79L38.35 9.79Q38.35 11.07 37.46 11.77L37.46 11.77L37.46 11.77Q36.57 12.46 35.17 12.46L35.17 12.46ZM32.96 7.92L37.06 7.92L37.06 7.92Q37.06 5.78 35.17 5.78L35.17 5.78L35.17 5.78Q34.12 5.78 33.59 6.29L33.59 6.29L33.59 6.29Q33.07 6.79 32.96 7.92L32.96 7.92ZM41.50 12.45L41.50 12.45Q40.74 12.45 40.39 12.00L40.39 12.00L40.39 12.00Q40.04 11.55 40.04 10.89L40.04 10.89L40.04 5.95L39.14 5.95L39.14 4.93L40.05 4.93L40.32 2.88L41.27 2.88L41.27 4.93L42.52 4.93L42.52 5.95L41.27 5.95L41.27 10.78L41.27 10.78Q41.27 11.44 41.89 11.44L41.89 11.44L42.52 11.44L42.52 12.25L42.52 12.25Q42.34 12.33 42.04 12.39L42.04 12.39L42.04 12.39Q41.75 12.45 41.50 12.45L41.50 12.45ZM47.78 12.29L47.78 2.69L52.46 2.69L52.46 2.69Q53.90 2.69 54.67 3.49L54.67 3.49L54.67 3.49Q55.44 4.28 55.44 5.61L55.44 5.61L55.44 5.61Q55.44 6.97 54.64 7.79L54.64 7.79L54.64 7.79Q53.83 8.61 52.46 8.61L52.46 8.61L49.11 8.61L49.11 12.29L47.78 12.29ZM49.11 7.45L52.39 7.45L52.39 7.45Q53.17 7.45 53.63 6.96L53.63 6.96L53.63 6.96Q54.10 6.47 54.10 5.63L54.10 5.63L54.10 5.63Q54.10 4.77 53.66 4.31L53.66 4.31L53.66 4.31Q53.23 3.85 52.39 3.85L52.39 3.85L49.11 3.85L49.11 7.45ZM56.95 12.29L56.95 2.17L58.18 2.17L58.18 12.29L56.95 12.29ZM62.06 12.46L62.06 12.46Q61.11 12.46 60.37 12.01L60.37 12.01L60.37 12.01Q59.63 11.56 59.63 10.39L59.63 10.39L59.63 10.39Q59.63 8.97 60.89 8.45L60.89 8.45L60.89 8.45Q62.15 7.92 64.53 7.92L64.53 7.92L64.53 7.11L64.53 7.11Q64.53 6.47 64.16 6.13L64.16 6.13L64.16 6.13Q63.80 5.78 62.85 5.78L62.85 5.78L62.85 5.78Q61.95 5.78 61.57 6.12L61.57 6.12L61.57 6.12Q61.18 6.45 61.18 6.94L61.18 6.94L61.18 7.11L59.99 7.11L59.99 7.11Q59.98 7.03 59.98 6.80L59.98 6.80L59.98 6.80Q59.98 5.82 60.79 5.29L60.79 5.29L60.79 5.29Q61.60 4.76 62.96 4.76L62.96 4.76L62.96 4.76Q64.33 4.76 65.04 5.33L65.04 5.33L65.04 5.33Q65.76 5.91 65.76 6.96L65.76 6.96L65.76 10.95L65.76 10.95Q65.76 11.20 65.90 11.32L65.90 11.32L65.90 11.32Q66.04 11.44 66.25 11.44L66.25 11.44L66.81 11.44L66.81 12.24L66.81 12.24Q66.44 12.40 65.86 12.40L65.86 12.40L65.86 12.40Q65.38 12.40 65.06 12.12L65.06 12.12L65.06 12.12Q64.74 11.83 64.62 11.35L64.62 11.35L64.53 11.35L64.53 11.35Q64.15 11.87 63.50 12.17L63.50 12.17L63.50 12.17Q62.85 12.46 62.06 12.46L62.06 12.46ZM62.38 11.44L62.38 11.44Q62.93 11.44 63.42 11.21L63.42 11.21L63.42 11.21Q63.91 10.99 64.22 10.55L64.22 10.55L64.22 10.55Q64.53 10.11 64.53 9.48L64.53 9.48L64.53 8.95L64.53 8.95Q62.72 8.95 61.82 9.23L61.82 9.23L61.82 9.23Q60.91 9.52 60.91 10.32L60.91 10.32L60.91 10.32Q60.91 10.92 61.29 11.18L61.29 11.18L61.29 11.18Q61.66 11.44 62.38 11.44L62.38 11.44ZM70.64 12.46L70.64 12.46Q68.96 12.46 68.18 11.53L68.18 11.53L68.18 11.53Q67.40 10.60 67.40 8.61L67.40 8.61L67.40 8.61Q67.40 6.64 68.19 5.70L68.19 5.70L68.19 5.70Q68.98 4.76 70.64 4.76L70.64 4.76L70.64 4.76Q72.16 4.76 72.86 5.49L72.86 5.49L72.86 5.49Q73.56 6.22 73.56 7.66L73.56 7.66L72.30 7.66L72.30 7.66Q72.30 6.66 71.94 6.22L71.94 6.22L71.94 6.22Q71.58 5.78 70.64 5.78L70.64 5.78L70.64 5.78Q69.62 5.78 69.15 6.45L69.15 6.45L69.15 6.45Q68.67 7.11 68.67 8.61L68.67 8.61L68.67 8.67L68.67 8.67Q68.67 10.15 69.13 10.79L69.13 10.79L69.13 10.79Q69.59 11.44 70.64 11.44L70.64 11.44L70.64 11.44Q71.57 11.44 71.97 10.97L71.97 10.97L71.97 10.97Q72.37 10.50 72.37 9.56L72.37 9.56L73.56 9.56L73.56 9.56Q73.56 10.82 72.84 11.64L72.84 11.64L72.84 11.64Q72.13 12.46 70.64 12.46L70.64 12.46ZM77.97 12.46L77.97 12.46Q76.19 12.46 75.32 11.52L75.32 11.52L75.32 11.52Q74.45 10.58 74.45 8.61L74.45 8.61L74.45 8.61Q74.45 6.64 75.32 5.70L75.32 5.70L75.32 5.70Q76.19 4.76 77.97 4.76L77.97 4.76L77.97 4.76Q79.56 4.76 80.35 5.61L80.35 5.61L80.35 5.61Q81.14 6.45 81.14 8.33L81.14 8.33L81.14 8.95L75.73 8.95L75.73 8.95Q75.80 10.22 76.34 10.83L76.34 10.83L76.34 10.83Q76.87 11.44 77.97 11.44L77.97 11.44L77.97 11.44Q78.85 11.44 79.39 11.03L79.39 11.03L79.39 11.03Q79.94 10.63 79.94 9.79L79.94 9.79L81.14 9.79L81.14 9.79Q81.14 11.07 80.26 11.77L80.26 11.77L80.26 11.77Q79.37 12.46 77.97 12.46L77.97 12.46ZM75.75 7.92L79.86 7.92L79.86 7.92Q79.86 5.78 77.97 5.78L77.97 5.78L77.97 5.78Q76.92 5.78 76.39 6.29L76.39 6.29L76.39 6.29Q75.87 6.79 75.75 7.92L75.75 7.92Z"></path></g><!----><g data-v-423bf9ae="" id="be365be7-ff62-43a7-b433-38b936622cb3" transform="matrix(2.8125,0,0,2.8125,189,0)" stroke="none" fill="white"><path d="M0 16.024L15.976 32 32 15.976 16.024 0 0 16.024zm15.989 7.323l-7.336-7.336 14.694-.022-7.358 7.358z"></path></g><!----></svg>